<svg xmlns="http://www.w3.org/2000/svg" viewBox="0 0 600 480" fill="none">
  <rect x="40" y="40" width="520" height="400" rx="24" fill="#f0e6d2"/>
  <!-- shop front -->
  <rect x="100" y="150" width="400" height="250" rx="10" fill="#fffdf8" stroke="#3a2a1c" stroke-width="4"/>
  <!-- awning -->
  <g>
    <rect x="84" y="112" width="432" height="20" rx="8" fill="#3a2a1c"/>
    <g>
      <path d="M92 132h48l-8 40c-1 8-8 14-16 14s-15-6-16-14l-8-40Z" fill="#a05c2c"/>
      <path d="M140 132h48l-8 40c-1 8-8 14-16 14s-15-6-16-14l-8-40Z" fill="#f7f1e6"/>
      <path d="M188 132h48l-8 40c-1 8-8 14-16 14s-15-6-16-14l-8-40Z" fill="#a05c2c"/>
      <path d="M236 132h48l-8 40c-1 8-8 14-16 14s-15-6-16-14l-8-40Z" fill="#f7f1e6"/>
      <path d="M284 132h48l-8 40c-1 8-8 14-16 14s-15-6-16-14l-8-40Z" fill="#a05c2c"/>
      <path d="M332 132h48l-8 40c-1 8-8 14-16 14s-15-6-16-14l-8-40Z" fill="#f7f1e6"/>
      <path d="M380 132h48l-8 40c-1 8-8 14-16 14s-15-6-16-14l-8-40Z" fill="#a05c2c"/>
      <path d="M428 132h48l-8 40c-1 8-8 14-16 14s-15-6-16-14l-8-40Z" fill="#f7f1e6"/>
      <path d="M476 132h32l-6 40c-1 8-7 14-14 14-7 0-13-6-14-14l-6-40Z" fill="#a05c2c"/>
    </g>
  </g>
  <!-- sign -->
  <rect x="180" y="196" width="240" height="44" rx="10" fill="#241a12"/>
  <g transform="translate(212 218) rotate(-45)">
    <circle r="7" fill="none" stroke="#c9973f" stroke-width="4"/>
    <rect x="-2" y="5" width="4" height="18" rx="2" fill="#c9973f"/>
    <rect x="-2" y="14" width="8" height="3.5" rx="1.5" fill="#c9973f"/>
  </g>
  <rect x="238" y="212" width="120" height="6" rx="3" fill="#c9973f"/>
  <rect x="238" y="224" width="82" height="5" rx="2.5" fill="#8a6a3f"/>
  <path d="M382 206c8 4 8 10 0 14 8 4 8 10 0 14" stroke="#c9973f" stroke-width="4" stroke-linecap="round"/>
  <!-- door -->
  <rect x="264" y="272" width="88" height="128" rx="6" fill="#a05c2c"/>
  <rect x="276" y="286" width="64" height="52" rx="4" fill="#f0e6d2"/>
  <circle cx="340" cy="358" r="5" fill="#c9973f"/>
  <!-- windows with goods -->
  <g>
    <rect x="128" y="272" width="112" height="92" rx="6" fill="#f0e6d2" stroke="#3a2a1c" stroke-width="3"/>
    <path d="M148 344c0-18 10-26 22-26h20c14 0 30 8 30 26H148Z" fill="#3a2a1c"/>
    <rect x="140" y="348" width="88" height="6" rx="3" fill="#8a6a3f"/>
  </g>
  <g>
    <rect x="360" y="272" width="112" height="92" rx="6" fill="#f0e6d2" stroke="#3a2a1c" stroke-width="3"/>
    <path d="M398 300v34" stroke="#a05c2c" stroke-width="5" stroke-linecap="round"/>
    <circle cx="398" cy="294" r="8" fill="none" stroke="#a05c2c" stroke-width="5"/>
    <path d="M432 296v38" stroke="#c9973f" stroke-width="5" stroke-linecap="round"/>
    <circle cx="432" cy="290" r="8" fill="none" stroke="#c9973f" stroke-width="5"/>
    <rect x="376" y="348" width="80" height="6" rx="3" fill="#8a6a3f"/>
  </g>
  <!-- ground -->
  <rect x="76" y="404" width="448" height="10" rx="5" fill="#241a12" opacity="0.85"/>
  <!-- plant -->
  <path d="M508 404c0-26 14-40 14-40s14 14 14 40" fill="#5b6b46"/>
</svg>
